#!OML:ASF I:\Actors\actors\Patient Classification 2\Patient 1\Session 1\actor1.ASF
:FULLY-SPECIFIED
:DEGREES
427
root 2.38131 17.6698 3.69068 21.8508 -15.1066 -12.4698
lowerback 33.7401 2.56887 -4.5735
upperback 6.16385 1.16596 -2.49663
thorax -10.4036 0.575306 -0.655041
lowerneck -15.8512 7.72105 11.8444
upperneck 21.6901 8.49555 -4.02743
head 10.2607 4.39045 -2.19024
rclavicle 3.18055e-015 0
rhumerus -51.0206 42.7977 -106.315
rradius 96.8434
rwrist 7.03349
rhand -18.727 -67.809
rfingers 7.12502
rthumb 7.56864 -262.346
lclavicle 3.18055e-015 0
lhumerus -4.40473 5.54455 79.1689
lradius 85.5846
lwrist 90.5034
lhand -47.8726 -18.5584
lfingers 7.12502
lthumb -20.5459 10.3744
rfemur -19.4933 10.192 12.5758
rtibia -5.44699
rfoot -5.96693 -15.6162
rtoes 4.51085
lfemur 8.29271 5.65978 -12.5925
ltibia -48.1115
lfoot 21.9906 16.3117
ltoes 2.00639
428
root 2.37995 17.6676 3.66103 21.8583 -15.3636 -12.6696
lowerback 34.1408 2.89307 -4.61143
upperback 6.1952 1.51798 -2.53321
thorax -10.5273 0.733595 -0.820153
lowerneck -16.1314 7.25889 11.6062
upperneck 21.7132 7.80071 -3.69194
head 10.2348 4.08957 -2.13198
rclavicle -1.59028e-015 -3.49861e-014
rhumerus -47.3008 43.8494 -105.919
rradius 95.1952
rwrist 6.08671
rhand -17.4001 -68.1497
rfingers 7.12502
rthumb 8.84928 -262.056
lclavicle -1.59028e-015 -3.49861e-014
lhumerus -1.62303 6.44187 77.7251
lradius 83.4461
lwrist 90.2068
lhand -47.0776 -16.2022
lfingers 7.12502
lthumb -19.7819 12.8111
rfemur -20.0642 10.3267 12.7603
rtibia -4.57229
rfoot -5.99992 -15.2028
rtoes 3.96003
lfemur 8.35275 6.14005 -12.5121
ltibia -48.2445
lfoot 22.1423 16.3207
ltoes 2.17992
429
root 2.37825 17.664 3.62974 21.8422 -15.5897 -12.8341
lowerback 34.4709 3.15195 -4.6385
upperback 6.24399 1.80608 -2.50618
thorax -10.603 0.862011 -0.898174
lowerneck -16.4438 6.79474 11.1652
upperneck 21.8098 7.14103 -3.29445
head 10.2369 3.79604 -2.01258
rclavicle -3.97569e-014 1.27222e-014
rhumerus -43.1827 44.9691 -105.107
rradius 93.3632
rwrist 4.76285
rhand -20.5082 -68.9919
rfingers 7.12502
rthumb 5.84918 -261.109
lclavicle -3.97569e-014 1.27222e-014
lhumerus 1.40229 7.52208 76.2712
lradius 80.6593
lwrist 88.7943
lhand -45.4594 -13.6484
lfingers 7.12502
lthumb -18.2257 15.5177
rfemur -20.5018 10.4189 12.9178
rtibia -3.9028
rfoot -6.00701 -14.8618
rtoes 3.65631
lfemur 8.41055 6.5811 -12.4438
ltibia -48.3573
lfoot 22.2683 16.3364
ltoes 2.29487
430
root 2.37815 17.6592 3.59893 21.7813 -15.7698 -12.8973
lowerback 34.7329 3.34752 -4.5853
upperback 6.32879 2.04755 -2.49841
thorax -10.6094 0.966497 -1.01891
lowerneck -16.9002 6.30454 10.645
upperneck 22.0174 6.42341 -2.77777
head 10.3009 3.48397 -1.84224
rclavicle -3.65764e-014 2.22639e-014
rhumerus -38.7971 45.8973 -104.038
rradius 91.4633
rwrist 3.28693
rhand -20.1168 -70.3556
rfingers 7.12502
rthumb 6.22706 -259.756
lclavicle -3.65764e-014 2.22639e-014
lhumerus 4.6743 8.75225 74.9669
lradius 78.0306
lwrist 88.5268
lhand -45.2898 -12.4162
lfingers 7.12502
lthumb -18.0625 16.7651
rfemur -20.7294 10.4283 12.9885
rtibia -3.59108
rfoot -5.9761 -14.6271
rtoes 4.09718
lfemur 8.44586 6.92071 -12.4683
ltibia -48.4277
lfoot 22.3787 16.288
ltoes 1.9755
431
root 2.37495 17.6564 3.56859 21.6801 -16.028 -12.8854
lowerback 34.9916 3.57295 -4.61945
upperback 6.35344 2.297 -2.46215
thorax -10.5644 1.07683 -1.08442
lowerneck -17.3787 5.75891 10.0178
upperneck 22.2695 5.64844 -2.21686
head 10.3846 3.14425 -1.64676
rclavicle -3.18055e-015 2.06736e-014
rhumerus -34.3964 46.5433 -102.699
rradius 89.7171
rwrist 1.89622
rhand -19.3084 -71.1454
rfingers 7.12502
rthumb 7.00745 -258.991
lclavicle -3.18055e-015 2.06736e-014
lhumerus 7.94885 9.9996 73.865
lradius 75.1343
lwrist 87.5022
lhand -44.8327 -11.3482
lfingers 7.12502
lthumb -17.6227 17.8732
rfemur -20.7936 10.487 12.9713
rtibia -3.59075
rfoot -5.78892 -14.5445
rtoes 4.43745
lfemur 8.4875 7.31163 -12.6009
ltibia -48.4502
lfoot 22.5069 16.1139
ltoes 1.40704
432
root 2.3672 17.6547 3.53943 21.5943 -16.3694 -12.8679
lowerback 35.0751 3.80169 -4.71186
upperback 6.42952 2.54404 -2.42409
thorax -10.5162 1.18755 -1.09341
lowerneck -17.689 5.21458 9.48045
upperneck 22.4412 4.89057 -1.7341
head 10.4242 2.81227 -1.49442
rclavicle 6.36111e-015 -2.06736e-014
rhumerus -30.4535 46.6243 -101.253
rradius 88.5296
rwrist 1.64276
rhand -17.8717 -71.2376
rfingers 7.12502
rthumb 8.39419 -258.949
lclavicle 6.36111e-015 -2.06736e-014
lhumerus 11.033 11.2102 72.8208
lradius 72.1366
lwrist 86.2218
lhand -44.271 -10.3242
lfingers 7.12502
lthumb -17.082 18.9448
rfemur -20.7676 10.6236 12.9305
rtibia -3.83401
rfoot -5.44018 -14.5762
rtoes 4.60553
lfemur 8.52764 7.7833 -12.7437
ltibia -48.4338
lfoot 22.556 16.0088
ltoes 1.32825
433
root 2.36017 17.6518 3.51395 21.562 -16.7039 -12.864
lowerback 35.0682 3.96859 -4.76735
upperback 6.44868 2.73402 -2.3866
thorax -10.4972 1.27323 -1.09848
lowerneck -17.962 4.73686 9.06108
upperneck 22.6955 4.2031 -1.28322
head 10.5043 2.52083 -1.36208
rclavicle 2.70347e-014 1.74931e-014
rhumerus -27.625 46.3897 -100.08
rradius 88.1544
rwrist 1.45754
rhand -17.6942 -71.2504
rfingers 7.12502
rthumb 8.56543 -258.943
lclavicle 2.70347e-014 1.74931e-014
lhumerus 13.6651 12.2259 71.6638
lradius 69.3877
lwrist 85.4977
lhand -43.9039 -9.80109
lfingers 7.12502
lthumb -16.7287 19.4981
rfemur -20.688 10.7529 12.898
rtibia -4.27263
rfoot -5.02836 -14.6633
rtoes 4.95758
lfemur 8.52602 8.21452 -12.854
ltibia -48.3942
lfoot 22.534 16.0148
ltoes 1.39798
434
root 2.35439 17.6503 3.49417 21.5416 -17.0264 -12.8124
lowerback 34.9674 4.09742 -4.86836
upperback 6.42478 2.87268 -2.31687
thorax -10.494 1.3384 -1.02299
lowerneck -18.2355 4.27181 8.55216
upperneck 23.0755 3.53598 -0.749696
head 10.6355 2.24403 -1.18198
rclavicle -5.24792e-014 3.65764e-014
rhumerus -26.0845 46.2252 -99.1666
rradius 88.6793
rwrist 0.952361
rhand -18.1509 -70.771
rfingers 7.12502
rthumb 8.12472 -259.405
lclavicle -5.24792e-014 3.65764e-014
lhumerus 15.1987 12.2274 70.0687
lradius 67.7749
lwrist 84.8384
lhand -44.2735 -10.9596
lfingers 7.12502
lthumb -17.0845 18.3092
rfemur -20.536 10.8507 12.8222
rtibia -4.85009
rfoot -4.58272 -14.802
rtoes 5.11667
lfemur 8.50416 8.56236 -13.002
ltibia -48.3357
lfoot 22.4739 16.0662
ltoes 1.46131
435
root 2.3488 17.6519 3.48227 21.5155 -17.3317 -12.7304
lowerback 34.7638 4.18117 -5.02912
upperback 6.35939 2.95255 -2.17856
thorax -10.5032 1.38024 -0.817205
lowerneck -18.3161 3.83187 7.9831
upperneck 23.4657 2.94243 -0.231041
head 10.7443 1.99482 -0.988861
rclavicle 2.22639e-014 -1.11319e-014
rhumerus -25.8498 46.316 -98.5748
rradius 89.9074
rwrist 0.23974
rhand -17.752 -70.7419
rfingers 7.12502
rthumb 8.50965 -259.45
lclavicle 2.22639e-014 -1.11319e-014
lhumerus 15.3168 11.267 68.0537
lradius 67.7574
lwrist 84.4797
lhand -44.8289 -12.2795
lfingers 7.12502
lthumb -17.619 16.9422
rfemur -20.3033 10.9232 12.7326
rtibia -5.49994
rfoot -4.06277 -14.9638
rtoes 4.92677
lfemur 8.47972 8.87568 -13.1808
ltibia -48.2497
lfoot 22.4173 16.072
ltoes 1.3023
436
root 2.3452 17.6556 3.47888 21.475 -17.5549 -12.6365
lowerback 34.4403 4.16191 -5.12167
upperback 6.31036 2.94765 -1.99514
thorax -10.5672 1.38436 -0.546093
lowerneck -18.2051 3.44787 7.46333
upperneck 23.9499 2.46829 0.124
head 10.8662 1.78565 -0.846576
rclavicle 2.70347e-014 -3.97569e-014
rhumerus -26.9523 46.5504 -98.4604
rradius 91.6193
rwrist -0.719087
rhand -17.9694 -70.8897
rfingers 7.12502
rthumb 8.29983 -259.293
lclavicle 2.70347e-014 -3.97569e-014
lhumerus 14.3142 9.32844 65.8036
lradius 68.9305
lwrist 84.6142
lhand -44.5992 -13.863
lfingers 7.12502
lthumb -17.398 15.3783
rfemur -19.9656 10.9152 12.6618
rtibia -6.22039
rfoot -3.52856 -15.1403
rtoes 4.79379
lfemur 8.44603 9.13665 -13.3674
ltibia -48.1235
lfoot 22.4052 15.9592
ltoes 0.730591
437
root 2.34534 17.66 3.48398 21.3849 -17.6879 -12.4614
lowerback 34.1975 4.01781 -5.11895
upperback 6.13846 2.81156 -1.82494
thorax -10.6731 1.3295 -0.308807
lowerneck -18.0412 3.12428 6.99855
upperneck 24.5431 2.07774 0.410577
head 11.0287 1.612 -0.724963
rclavicle 3.18055e-015 -7.95139e-015
rhumerus -29.3054 46.7883 -98.9515
rradius 93.6817
rwrist -1.78354
rhand -19.435 -71.4011
rfingers 7.12502
rthumb 6.88529 -258.731
lclavicle 3.18055e-015 -7.95139e-015
lhumerus 12.3109 7.48741 64.2121
lradius 71.5102
lwrist 84.7388
lhand -44.8787 -12.4165
lfingers 7.12502
lthumb -17.667 16.8009
rfemur -19.509 10.7899 12.5321
rtibia -7.00729
rfoot -3.03672 -15.2874
rtoes 4.75153
lfemur 8.41913 9.29203 -13.6274
ltibia -47.9518
lfoot 22.3923 15.7799
ltoes 0.0839249
438
root 2.3475 17.6665 3.49679 21.249 -17.791 -12.216
lowerback 33.9254 3.77446 -5.08293
upperback 5.94955 2.5629 -1.67659
thorax -10.78 1.22399 -0.0674678
lowerneck -17.8759 2.92322 6.62511
upperneck 25.2341 1.83778 0.644306
head 11.2395 1.50869 -0.613936
rclavicle -5.88403e-014 1.90833e-014
rhumerus -32.231 46.2841 -99.4302
rradius 95.7521
rwrist -0.595425
rhand -16.8442 -70.9641
rfingers 7.12502
rthumb 9.38563 -259.265
lclavicle -5.88403e-014 1.90833e-014
lhumerus 9.85574 5.1363 63.0443
lradius 74.5303
lwrist 85.9864
lhand -44.9742 -14.4415
lfingers 7.12502
lthumb -17.7588 14.7676
rfemur -18.9695 10.6128 12.3462
rtibia -7.81543
rfoot -2.53396 -15.3934
rtoes 4.3479
lfemur 8.41475 9.35767 -13.9315
ltibia -47.7428
lfoot 22.2731 15.7083
ltoes 0.0537181
439
root 2.34576 17.6747 3.5149 21.1121 -17.9732 -11.9359
lowerback 33.3468 3.49374 -5.02104
upperback 5.91047 2.28752 -1.63061
thorax -10.5918 1.10053 0.0756831
lowerneck -17.5875 2.78193 6.49668
upperneck 25.6847 1.68375 0.653063
head 11.3461 1.43406 -0.614704
rclavicle -7.95139e-015 2.38542e-014
rhumerus -35.8681 45.8819 -100.449
rradius 97.8982
rwrist -1.17988
rhand -17.6605 -70.4666
rfingers 7.12502
rthumb 8.59796 -259.728
lclavicle -7.95139e-015 2.38542e-014
lhumerus 7.33241 2.8138 62.5567
lradius 77.6532
lwrist 86.6681
lhand -45.2148 -15.7519
lfingers 7.12502
lthumb -17.9903 13.4361
rfemur -18.409 10.5003 12.1103
rtibia -8.66939
rfoot -2.05005 -15.5554
rtoes 3.80006
lfemur 8.43169 9.42328 -14.2507
ltibia -47.5049
lfoot 22.0073 15.7851
ltoes 0.557489
